<svg width="105.69" height="9.438" viewBox="0 0 105.69 9.438" xmlns="http://www.w3.org/2000/svg"><g id="svgGroup" stroke-linecap="round" fill-rule="evenodd" font-size="9pt" stroke="#fff" stroke-width="0.25mm" fill="white" style="stroke:#fff;stroke-width:0.25mm;fill:white"><path d="M 5.044 5.707 L 4.563 5.707 A 2.025 2.025 0 0 0 4.527 5.316 A 1.45 1.45 0 0 0 4.362 4.865 A 1.453 1.453 0 0 0 4.025 4.464 A 1.359 1.359 0 0 0 3.832 4.332 A 1.424 1.424 0 0 0 3.12 4.147 A 1.502 1.502 0 0 0 2.616 4.23 A 1.36 1.36 0 0 0 2.304 4.388 Q 1.95 4.628 1.749 5.06 A 2.098 2.098 0 0 0 1.583 5.609 A 2.847 2.847 0 0 0 1.547 6.071 A 3.006 3.006 0 0 0 1.586 6.564 Q 1.634 6.858 1.745 7.103 A 1.905 1.905 0 0 0 1.749 7.111 A 1.821 1.821 0 0 0 2.005 7.524 A 1.522 1.522 0 0 0 2.304 7.8 Q 2.659 8.047 3.107 8.047 A 1.34 1.34 0 0 0 3.761 7.874 A 1.602 1.602 0 0 0 3.806 7.849 A 1.532 1.532 0 0 0 4.325 7.337 A 1.811 1.811 0 0 0 4.352 7.293 Q 4.563 6.936 4.563 6.461 L 5.044 6.461 A 5.529 5.529 0 0 1 5.002 7.16 Q 4.957 7.516 4.862 7.816 A 2.803 2.803 0 0 1 4.748 8.115 Q 4.453 8.775 3.959 9.107 Q 3.465 9.438 2.873 9.438 A 2.622 2.622 0 0 1 1.427 9.019 A 2.89 2.89 0 0 1 0.514 8.071 A 3.525 3.525 0 0 1 0.387 7.842 A 3.474 3.474 0 0 1 0.057 6.81 A 4.627 4.627 0 0 1 0 6.071 Q 0 5.07 0.374 4.326 A 3.122 3.122 0 0 1 0.858 3.613 A 2.656 2.656 0 0 1 1.375 3.175 Q 2.002 2.769 2.769 2.769 A 2.472 2.472 0 0 1 3.403 2.847 A 1.988 1.988 0 0 1 3.985 3.104 A 1.968 1.968 0 0 1 4.593 3.742 A 2.599 2.599 0 0 1 4.771 4.095 A 3.297 3.297 0 0 1 4.962 4.751 Q 5.022 5.069 5.038 5.436 A 6.247 6.247 0 0 1 5.044 5.707 Z M 6.11 9.256 L 4.849 9.256 L 4.563 7.696 L 4.563 0.338 L 6.11 0.338 L 6.11 9.256 Z" id="0" vector-effect="non-scaling-stroke"/><path d="M 10.192 9.256 L 8.658 9.256 L 8.658 2.925 L 10.192 2.925 L 10.192 9.256 Z M 9.143 1.767 A 1.363 1.363 0 0 0 9.425 1.794 A 1.596 1.596 0 0 0 9.469 1.793 Q 9.88 1.782 10.121 1.557 A 0.771 0.771 0 0 0 10.343 1.171 A 1.132 1.132 0 0 0 10.374 0.897 A 1.155 1.155 0 0 0 10.36 0.714 A 0.811 0.811 0 0 0 10.121 0.244 A 0.799 0.799 0 0 0 10.067 0.197 Q 9.822 0 9.425 0 Q 9.243 0 9.093 0.04 A 0.821 0.821 0 0 0 8.726 0.244 Q 8.476 0.488 8.476 0.897 A 1.167 1.167 0 0 0 8.502 1.149 A 0.779 0.779 0 0 0 8.726 1.557 Q 8.892 1.713 9.143 1.767 Z" id="1" vector-effect="non-scaling-stroke"/><path d="M 12.22 7.332 L 13.637 7.332 A 1.016 1.016 0 0 0 13.686 7.612 A 0.729 0.729 0 0 0 14.008 8.015 A 1.302 1.302 0 0 0 14.345 8.156 Q 14.503 8.2 14.691 8.217 A 2.933 2.933 0 0 0 14.963 8.229 A 1.923 1.923 0 0 0 15.267 8.206 A 1.441 1.441 0 0 0 15.551 8.132 A 1.175 1.175 0 0 0 15.748 8.037 Q 15.864 7.965 15.945 7.872 A 0.744 0.744 0 0 0 15.951 7.865 A 0.608 0.608 0 0 0 16.063 7.674 A 0.555 0.555 0 0 0 16.094 7.488 A 0.594 0.594 0 0 0 16.065 7.297 A 0.486 0.486 0 0 0 15.902 7.069 A 1.019 1.019 0 0 0 15.76 6.976 Q 15.579 6.875 15.288 6.786 L 13.91 6.292 A 3.724 3.724 0 0 1 13.403 6.068 Q 13.02 5.862 12.773 5.59 Q 12.376 5.155 12.376 4.55 Q 12.376 3.751 13.101 3.26 A 2.625 2.625 0 0 1 13.886 2.908 Q 14.235 2.813 14.65 2.783 A 5.445 5.445 0 0 1 15.041 2.769 A 4.439 4.439 0 0 1 15.759 2.823 Q 16.461 2.939 16.91 3.299 Q 17.57 3.829 17.589 4.641 L 16.146 4.641 A 0.65 0.65 0 0 0 15.889 4.178 A 0.833 0.833 0 0 0 15.847 4.147 A 0.869 0.869 0 0 0 15.62 4.04 Q 15.402 3.97 15.085 3.965 A 3.098 3.098 0 0 0 15.041 3.965 Q 14.554 3.965 14.277 4.163 A 0.84 0.84 0 0 0 14.135 4.29 Q 14.001 4.443 14.001 4.628 Q 14.001 5.045 14.665 5.271 A 2.724 2.724 0 0 0 14.768 5.304 L 16.263 5.863 A 4.067 4.067 0 0 1 16.763 6.068 Q 17.142 6.256 17.394 6.5 A 1.305 1.305 0 0 1 17.796 7.432 A 1.732 1.732 0 0 1 17.797 7.488 A 1.496 1.496 0 0 1 17.57 8.276 A 1.922 1.922 0 0 1 17.462 8.434 A 2.196 2.196 0 0 1 16.941 8.926 A 2.905 2.905 0 0 1 16.53 9.159 A 2.92 2.92 0 0 1 15.731 9.395 A 3.868 3.868 0 0 1 15.145 9.438 Q 14.235 9.438 13.582 9.188 A 2.604 2.604 0 0 1 13.068 8.927 A 1.957 1.957 0 0 1 12.578 8.466 Q 12.227 7.995 12.22 7.332 Z" id="2" vector-effect="non-scaling-stroke"/><path d="M 24.694 5.07 L 23.147 5.109 A 1.505 1.505 0 0 0 22.967 4.676 A 1.333 1.333 0 0 0 22.76 4.42 Q 22.477 4.147 22.029 4.147 Q 21.658 4.147 21.333 4.352 A 1.285 1.285 0 0 0 20.997 4.663 Q 20.89 4.805 20.803 4.986 Q 20.599 5.415 20.599 6.097 Q 20.599 6.747 20.79 7.179 A 1.784 1.784 0 0 0 20.98 7.511 A 1.308 1.308 0 0 0 21.307 7.829 A 1.268 1.268 0 0 0 22.029 8.047 A 1.922 1.922 0 0 0 22.332 8.025 Q 22.689 7.968 22.88 7.764 A 0.952 0.952 0 0 0 23.116 7.304 A 1.392 1.392 0 0 0 23.147 7.007 L 24.694 7.007 A 2.538 2.538 0 0 1 24.522 7.945 A 2.412 2.412 0 0 1 24.388 8.229 A 2.213 2.213 0 0 1 23.582 9.057 A 2.669 2.669 0 0 1 23.491 9.11 Q 22.9 9.438 22.042 9.438 Q 21.249 9.438 20.569 9.025 A 3.037 3.037 0 0 1 19.58 8.044 A 3.643 3.643 0 0 1 19.471 7.862 A 3.261 3.261 0 0 1 19.103 6.777 A 4.306 4.306 0 0 1 19.052 6.097 Q 19.052 5.025 19.471 4.28 A 3.085 3.085 0 0 1 20.042 3.54 A 2.714 2.714 0 0 1 20.569 3.153 A 2.945 2.945 0 0 1 22.042 2.769 Q 22.659 2.769 23.13 2.967 A 2.547 2.547 0 0 1 23.724 3.314 A 2.29 2.29 0 0 1 23.933 3.5 Q 24.265 3.835 24.453 4.245 A 2.859 2.859 0 0 1 24.667 4.901 A 2.605 2.605 0 0 1 24.694 5.07 Z" id="3" vector-effect="non-scaling-stroke"/><path d="M 29.016 9.438 Q 28.152 9.438 27.453 9.068 Q 26.754 8.697 26.345 7.959 Q 25.981 7.303 25.94 6.352 A 5.706 5.706 0 0 1 25.935 6.11 A 5.155 5.155 0 0 1 25.993 5.317 Q 26.059 4.893 26.2 4.542 A 2.771 2.771 0 0 1 26.345 4.238 A 2.799 2.799 0 0 1 26.942 3.483 A 2.555 2.555 0 0 1 27.453 3.133 A 3.244 3.244 0 0 1 28.724 2.78 A 3.916 3.916 0 0 1 29.016 2.769 A 3.444 3.444 0 0 1 30.018 2.911 A 3.073 3.073 0 0 1 30.56 3.133 A 2.623 2.623 0 0 1 31.569 4.08 A 3.216 3.216 0 0 1 31.662 4.238 Q 32.015 4.878 32.063 5.808 A 5.821 5.821 0 0 1 32.071 6.11 A 5.006 5.006 0 0 1 32.013 6.891 Q 31.918 7.498 31.662 7.959 Q 31.252 8.697 30.56 9.068 A 3.162 3.162 0 0 1 29.226 9.432 A 3.783 3.783 0 0 1 29.016 9.438 Z M 28.964 8.099 A 1.572 1.572 0 0 0 29.466 8.021 A 1.407 1.407 0 0 0 29.773 7.875 A 1.409 1.409 0 0 0 30.19 7.464 A 1.848 1.848 0 0 0 30.332 7.209 A 2.043 2.043 0 0 0 30.476 6.764 Q 30.537 6.469 30.537 6.11 Q 30.537 5.109 30.144 4.602 A 1.262 1.262 0 0 0 29.224 4.102 A 1.71 1.71 0 0 0 29.068 4.095 A 1.617 1.617 0 0 0 28.575 4.168 A 1.424 1.424 0 0 0 28.249 4.319 A 1.393 1.393 0 0 0 27.83 4.734 A 1.846 1.846 0 0 0 27.687 4.992 A 2.093 2.093 0 0 0 27.543 5.444 Q 27.482 5.744 27.482 6.11 A 3.911 3.911 0 0 0 27.517 6.654 Q 27.601 7.247 27.882 7.599 A 1.287 1.287 0 0 0 28.818 8.093 A 1.743 1.743 0 0 0 28.964 8.099 Z" id="4" vector-effect="non-scaling-stroke"/><path d="M 35.425 9.256 L 33.891 9.256 L 33.891 2.925 L 35.425 2.925 L 35.425 9.256 Z M 35.425 6.487 L 35.048 6.487 A 9.12 9.12 0 0 1 35.084 5.65 Q 35.122 5.237 35.201 4.885 A 4.227 4.227 0 0 1 35.328 4.433 Q 35.607 3.621 36.078 3.227 Q 36.55 2.834 37.128 2.834 Q 37.284 2.834 37.424 2.854 A 2.021 2.021 0 0 1 37.7 2.912 L 37.674 4.446 A 3.665 3.665 0 0 0 37.453 4.402 A 4.425 4.425 0 0 0 37.31 4.381 A 3.219 3.219 0 0 0 37.136 4.362 Q 37.054 4.356 36.98 4.355 A 1.917 1.917 0 0 0 36.959 4.355 A 1.742 1.742 0 0 0 36.568 4.397 A 1.265 1.265 0 0 0 36.111 4.599 A 1.323 1.323 0 0 0 35.743 5.006 A 1.825 1.825 0 0 0 35.597 5.317 Q 35.425 5.792 35.425 6.487 Z" id="5" vector-effect="non-scaling-stroke"/><path d="M 43.492 5.707 L 43.011 5.707 A 2.025 2.025 0 0 0 42.975 5.316 A 1.45 1.45 0 0 0 42.809 4.865 A 1.453 1.453 0 0 0 42.472 4.464 A 1.359 1.359 0 0 0 42.279 4.332 A 1.424 1.424 0 0 0 41.568 4.147 A 1.502 1.502 0 0 0 41.064 4.23 A 1.36 1.36 0 0 0 40.752 4.388 Q 40.398 4.628 40.196 5.06 A 2.098 2.098 0 0 0 40.03 5.609 A 2.847 2.847 0 0 0 39.995 6.071 A 3.006 3.006 0 0 0 40.033 6.564 Q 40.082 6.858 40.193 7.103 A 1.905 1.905 0 0 0 40.196 7.111 A 1.821 1.821 0 0 0 40.452 7.524 A 1.522 1.522 0 0 0 40.752 7.8 Q 41.106 8.047 41.555 8.047 A 1.34 1.34 0 0 0 42.209 7.874 A 1.602 1.602 0 0 0 42.253 7.849 A 1.532 1.532 0 0 0 42.772 7.337 A 1.811 1.811 0 0 0 42.799 7.293 Q 43.011 6.936 43.011 6.461 L 43.492 6.461 A 5.529 5.529 0 0 1 43.45 7.16 Q 43.404 7.516 43.309 7.816 A 2.803 2.803 0 0 1 43.196 8.115 Q 42.9 8.775 42.406 9.107 Q 41.912 9.438 41.321 9.438 A 2.622 2.622 0 0 1 39.874 9.019 A 2.89 2.89 0 0 1 38.962 8.071 A 3.525 3.525 0 0 1 38.834 7.842 A 3.474 3.474 0 0 1 38.504 6.81 A 4.627 4.627 0 0 1 38.448 6.071 Q 38.448 5.07 38.821 4.326 A 3.122 3.122 0 0 1 39.306 3.613 A 2.656 2.656 0 0 1 39.822 3.175 Q 40.45 2.769 41.217 2.769 A 2.472 2.472 0 0 1 41.85 2.847 A 1.988 1.988 0 0 1 42.432 3.104 A 1.968 1.968 0 0 1 43.041 3.742 A 2.599 2.599 0 0 1 43.219 4.095 A 3.297 3.297 0 0 1 43.41 4.751 Q 43.47 5.069 43.486 5.436 A 6.247 6.247 0 0 1 43.492 5.707 Z M 44.558 9.256 L 43.297 9.256 L 43.011 7.696 L 43.011 0.338 L 44.558 0.338 L 44.558 9.256 Z" id="6" vector-effect="non-scaling-stroke"/><path d="M 51.929 9.256 L 50.395 9.256 L 50.395 2.925 L 51.929 2.925 L 51.929 9.256 Z M 50.88 1.767 A 1.363 1.363 0 0 0 51.162 1.794 A 1.596 1.596 0 0 0 51.205 1.793 Q 51.616 1.782 51.857 1.557 A 0.771 0.771 0 0 0 52.079 1.171 A 1.132 1.132 0 0 0 52.111 0.897 A 1.155 1.155 0 0 0 52.097 0.714 A 0.811 0.811 0 0 0 51.857 0.244 A 0.799 0.799 0 0 0 51.804 0.197 Q 51.559 0 51.162 0 Q 50.979 0 50.83 0.04 A 0.821 0.821 0 0 0 50.463 0.244 Q 50.213 0.488 50.213 0.897 A 1.167 1.167 0 0 0 50.238 1.149 A 0.779 0.779 0 0 0 50.463 1.557 Q 50.628 1.713 50.88 1.767 Z" id="8" vector-effect="non-scaling-stroke"/><path d="M 53.957 7.332 L 55.374 7.332 A 1.016 1.016 0 0 0 55.422 7.612 A 0.729 0.729 0 0 0 55.744 8.015 A 1.302 1.302 0 0 0 56.082 8.156 Q 56.24 8.2 56.428 8.217 A 2.933 2.933 0 0 0 56.7 8.229 A 1.923 1.923 0 0 0 57.003 8.206 A 1.441 1.441 0 0 0 57.288 8.132 A 1.175 1.175 0 0 0 57.484 8.037 Q 57.601 7.965 57.682 7.872 A 0.744 0.744 0 0 0 57.688 7.865 A 0.608 0.608 0 0 0 57.799 7.674 A 0.555 0.555 0 0 0 57.831 7.488 A 0.594 0.594 0 0 0 57.801 7.297 A 0.486 0.486 0 0 0 57.639 7.069 A 1.019 1.019 0 0 0 57.496 6.976 Q 57.315 6.875 57.025 6.786 L 55.647 6.292 A 3.724 3.724 0 0 1 55.139 6.068 Q 54.757 5.862 54.509 5.59 Q 54.113 5.155 54.113 4.55 Q 54.113 3.751 54.837 3.26 A 2.625 2.625 0 0 1 55.623 2.908 Q 55.972 2.813 56.387 2.783 A 5.445 5.445 0 0 1 56.778 2.769 A 4.439 4.439 0 0 1 57.496 2.823 Q 58.198 2.939 58.646 3.299 Q 59.306 3.829 59.326 4.641 L 57.883 4.641 A 0.65 0.65 0 0 0 57.626 4.178 A 0.833 0.833 0 0 0 57.584 4.147 A 0.869 0.869 0 0 0 57.357 4.04 Q 57.138 3.97 56.822 3.965 A 3.098 3.098 0 0 0 56.778 3.965 Q 56.29 3.965 56.014 4.163 A 0.84 0.84 0 0 0 55.871 4.29 Q 55.738 4.443 55.738 4.628 Q 55.738 5.045 56.401 5.271 A 2.724 2.724 0 0 0 56.505 5.304 L 58 5.863 A 4.067 4.067 0 0 1 58.5 6.068 Q 58.879 6.256 59.131 6.5 A 1.305 1.305 0 0 1 59.533 7.432 A 1.732 1.732 0 0 1 59.534 7.488 A 1.496 1.496 0 0 1 59.306 8.276 A 1.922 1.922 0 0 1 59.199 8.434 A 2.196 2.196 0 0 1 58.678 8.926 A 2.905 2.905 0 0 1 58.266 9.159 A 2.92 2.92 0 0 1 57.467 9.395 A 3.868 3.868 0 0 1 56.882 9.438 Q 55.972 9.438 55.318 9.188 A 2.604 2.604 0 0 1 54.805 8.927 A 1.957 1.957 0 0 1 54.314 8.466 Q 53.963 7.995 53.957 7.332 Z" id="9" vector-effect="non-scaling-stroke"/><path d="M 70.031 9.256 L 68.692 9.256 L 68.497 7.722 L 68.497 5.187 Q 68.497 4.526 68.229 4.208 A 0.78 0.78 0 0 0 68.227 4.206 A 0.796 0.796 0 0 0 67.906 3.982 Q 67.772 3.929 67.603 3.906 A 2.104 2.104 0 0 0 67.314 3.887 Q 66.97 3.887 66.709 3.983 A 1.27 1.27 0 0 0 66.671 3.998 A 1.077 1.077 0 0 0 66.446 4.119 A 0.834 0.834 0 0 0 66.251 4.313 Q 66.105 4.518 66.105 4.81 L 64.428 4.81 A 2.433 2.433 0 0 1 64.477 4.311 Q 64.546 3.98 64.715 3.725 A 1.492 1.492 0 0 1 64.773 3.643 A 1.791 1.791 0 0 1 65.346 3.159 A 2.455 2.455 0 0 1 65.764 2.98 Q 66.322 2.798 67.072 2.773 A 7.289 7.289 0 0 1 67.314 2.769 A 4.308 4.308 0 0 1 68.014 2.823 A 3.12 3.12 0 0 1 68.744 3.032 Q 69.355 3.296 69.693 3.842 A 2.121 2.121 0 0 1 69.947 4.464 Q 70.031 4.813 70.031 5.239 L 70.031 9.256 Z M 68.64 5.876 L 68.64 6.773 A 4.593 4.593 0 0 0 68.143 6.642 A 5.573 5.573 0 0 0 67.86 6.591 A 5.708 5.708 0 0 0 67.377 6.537 A 4.604 4.604 0 0 0 67.067 6.526 A 2.429 2.429 0 0 0 66.689 6.554 Q 66.486 6.586 66.319 6.655 A 1.278 1.278 0 0 0 66.17 6.728 A 0.67 0.67 0 0 0 65.836 7.213 A 1.096 1.096 0 0 0 65.819 7.41 A 0.767 0.767 0 0 0 66.054 7.966 A 1.054 1.054 0 0 0 66.105 8.015 A 0.858 0.858 0 0 0 66.38 8.174 Q 66.619 8.262 66.968 8.268 A 2.979 2.979 0 0 0 67.015 8.268 A 1.802 1.802 0 0 0 67.396 8.23 A 1.315 1.315 0 0 0 67.821 8.06 A 1.521 1.521 0 0 0 68.159 7.776 A 1.335 1.335 0 0 0 68.325 7.54 A 1.431 1.431 0 0 0 68.457 7.218 A 1.166 1.166 0 0 0 68.497 6.916 L 68.861 6.916 A 3.211 3.211 0 0 1 68.741 7.804 A 2.886 2.886 0 0 1 68.608 8.174 Q 68.354 8.749 67.857 9.094 A 1.889 1.889 0 0 1 67.143 9.39 A 2.635 2.635 0 0 1 66.625 9.438 A 3.88 3.88 0 0 1 66.054 9.398 Q 65.609 9.332 65.27 9.155 A 2.23 2.23 0 0 1 64.798 8.831 A 1.81 1.81 0 0 1 64.454 8.411 Q 64.181 7.95 64.181 7.41 A 1.876 1.876 0 0 1 64.24 6.928 A 1.447 1.447 0 0 1 64.496 6.406 A 1.721 1.721 0 0 1 65.008 5.968 A 2.332 2.332 0 0 1 65.39 5.795 A 3.38 3.38 0 0 1 65.999 5.644 Q 66.35 5.59 66.755 5.59 A 6.068 6.068 0 0 1 67.435 5.627 A 5.235 5.235 0 0 1 67.727 5.668 Q 68.185 5.746 68.64 5.876 Z" id="11" vector-effect="non-scaling-stroke"/><path d="M 76.635 6.461 L 77.103 6.461 A 1.778 1.778 0 0 0 77.157 6.906 A 1.452 1.452 0 0 0 77.318 7.293 A 1.604 1.604 0 0 0 77.69 7.725 A 1.508 1.508 0 0 0 77.87 7.849 A 1.432 1.432 0 0 0 78.314 8.021 A 1.308 1.308 0 0 0 78.572 8.047 Q 79.021 8.047 79.372 7.8 A 1.601 1.601 0 0 0 79.812 7.326 A 2.026 2.026 0 0 0 79.927 7.111 Q 80.132 6.669 80.132 6.071 A 2.808 2.808 0 0 0 80.089 5.569 A 2.077 2.077 0 0 0 79.931 5.06 A 1.762 1.762 0 0 0 79.666 4.646 A 1.5 1.5 0 0 0 79.375 4.388 A 1.398 1.398 0 0 0 78.645 4.149 A 1.716 1.716 0 0 0 78.559 4.147 A 1.442 1.442 0 0 0 77.844 4.332 A 1.414 1.414 0 0 0 77.327 4.833 A 1.676 1.676 0 0 0 77.308 4.865 Q 77.103 5.213 77.103 5.707 L 76.635 5.707 A 5.501 5.501 0 0 1 76.677 5.006 Q 76.743 4.495 76.911 4.095 A 2.489 2.489 0 0 1 77.21 3.566 A 1.93 1.93 0 0 1 77.698 3.104 A 2.029 2.029 0 0 1 78.53 2.796 A 2.64 2.64 0 0 1 78.91 2.769 A 2.511 2.511 0 0 1 80.304 3.175 Q 80.932 3.582 81.305 4.326 A 3.436 3.436 0 0 1 81.617 5.3 A 4.616 4.616 0 0 1 81.679 6.071 A 4.494 4.494 0 0 1 81.594 6.965 A 3.407 3.407 0 0 1 81.292 7.842 A 3.142 3.142 0 0 1 80.738 8.622 A 2.784 2.784 0 0 1 80.249 9.019 A 2.649 2.649 0 0 1 78.793 9.438 Q 78.202 9.438 77.711 9.107 A 2.004 2.004 0 0 1 77.198 8.597 A 2.778 2.778 0 0 1 76.928 8.115 Q 76.686 7.572 76.644 6.8 A 6.186 6.186 0 0 1 76.635 6.461 Z M 76.57 9.256 L 75.569 9.256 L 75.569 0.338 L 77.103 0.338 L 77.103 7.696 L 76.57 9.256 Z" id="13" vector-effect="non-scaling-stroke"/><path d="M 85.215 9.256 L 83.681 9.256 L 83.681 2.925 L 85.215 2.925 L 85.215 9.256 Z M 84.166 1.767 A 1.363 1.363 0 0 0 84.448 1.794 A 1.596 1.596 0 0 0 84.492 1.793 Q 84.903 1.782 85.144 1.557 A 0.771 0.771 0 0 0 85.366 1.171 A 1.132 1.132 0 0 0 85.397 0.897 A 1.155 1.155 0 0 0 85.383 0.714 A 0.811 0.811 0 0 0 85.144 0.244 A 0.799 0.799 0 0 0 85.09 0.197 Q 84.845 0 84.448 0 Q 84.266 0 84.116 0.04 A 0.821 0.821 0 0 0 83.749 0.244 Q 83.499 0.488 83.499 0.897 A 1.167 1.167 0 0 0 83.525 1.149 A 0.779 0.779 0 0 0 83.749 1.557 Q 83.915 1.713 84.166 1.767 Z" id="14" vector-effect="non-scaling-stroke"/><path d="M 87.906 7.501 L 87.906 1.274 L 89.44 1.274 L 89.44 7.449 A 1.186 1.186 0 0 0 89.475 7.753 Q 89.602 8.229 90.181 8.229 Q 90.409 8.229 90.636 8.177 A 3.587 3.587 0 0 0 90.816 8.131 Q 90.924 8.1 91.044 8.06 A 6.569 6.569 0 0 0 91.156 8.021 L 91.377 9.1 A 7.86 7.86 0 0 1 90.842 9.289 A 6.886 6.886 0 0 1 90.669 9.341 Q 90.324 9.438 89.947 9.438 A 2.615 2.615 0 0 1 89.27 9.353 A 2.299 2.299 0 0 1 88.923 9.23 Q 88.459 9.022 88.182 8.593 Q 87.931 8.202 87.908 7.618 A 3.036 3.036 0 0 1 87.906 7.501 Z M 91.156 3.965 L 87.022 3.965 L 87.022 2.951 L 91.156 2.951 L 91.156 3.965 Z" id="15" vector-effect="non-scaling-stroke"/><path d="M 97.988 5.07 L 96.441 5.109 A 1.505 1.505 0 0 0 96.261 4.676 A 1.333 1.333 0 0 0 96.054 4.42 Q 95.771 4.147 95.323 4.147 Q 94.952 4.147 94.627 4.352 A 1.285 1.285 0 0 0 94.291 4.663 Q 94.184 4.805 94.097 4.986 Q 93.893 5.415 93.893 6.097 Q 93.893 6.747 94.084 7.179 A 1.784 1.784 0 0 0 94.274 7.511 A 1.308 1.308 0 0 0 94.601 7.829 A 1.268 1.268 0 0 0 95.323 8.047 A 1.922 1.922 0 0 0 95.626 8.025 Q 95.983 7.968 96.174 7.764 A 0.952 0.952 0 0 0 96.41 7.304 A 1.392 1.392 0 0 0 96.441 7.007 L 97.988 7.007 A 2.538 2.538 0 0 1 97.816 7.945 A 2.412 2.412 0 0 1 97.682 8.229 A 2.213 2.213 0 0 1 96.876 9.057 A 2.669 2.669 0 0 1 96.785 9.11 Q 96.194 9.438 95.336 9.438 Q 94.543 9.438 93.863 9.025 A 3.037 3.037 0 0 1 92.874 8.044 A 3.643 3.643 0 0 1 92.765 7.862 A 3.261 3.261 0 0 1 92.397 6.777 A 4.306 4.306 0 0 1 92.346 6.097 Q 92.346 5.025 92.765 4.28 A 3.085 3.085 0 0 1 93.336 3.54 A 2.714 2.714 0 0 1 93.863 3.153 A 2.945 2.945 0 0 1 95.336 2.769 Q 95.953 2.769 96.424 2.967 A 2.547 2.547 0 0 1 97.018 3.314 A 2.29 2.29 0 0 1 97.227 3.5 Q 97.559 3.835 97.747 4.245 A 2.859 2.859 0 0 1 97.961 4.901 A 2.605 2.605 0 0 1 97.988 5.07 Z" id="16" vector-effect="non-scaling-stroke"/><path d="M 105.69 9.256 L 104.156 9.256 L 104.156 5.564 Q 104.156 4.862 103.818 4.505 A 1.126 1.126 0 0 0 103.084 4.154 A 1.543 1.543 0 0 0 102.934 4.147 A 1.422 1.422 0 0 0 102.399 4.246 A 1.338 1.338 0 0 0 102.118 4.401 Q 101.764 4.654 101.563 5.164 Q 101.397 5.582 101.368 6.169 A 5.249 5.249 0 0 0 101.361 6.435 L 100.854 6.435 Q 100.854 5.207 101.16 4.391 Q 101.439 3.645 101.93 3.244 A 1.982 1.982 0 0 1 102.024 3.172 A 2.137 2.137 0 0 1 103.14 2.776 A 2.685 2.685 0 0 1 103.337 2.769 Q 104.103 2.769 104.621 3.104 A 1.831 1.831 0 0 1 104.64 3.117 Q 105.164 3.465 105.427 4.095 A 3.3 3.3 0 0 1 105.636 4.847 A 4.533 4.533 0 0 1 105.69 5.564 L 105.69 9.256 Z M 101.361 9.256 L 99.827 9.256 L 99.827 0.338 L 101.361 0.338 L 101.361 9.256 Z" id="17" vector-effect="non-scaling-stroke"/></g></svg>