<svg width="1624.5874999999999px" height="230.0349365234375px" xmlns="http://www.w3.org/2000/svg" viewBox="-562.2937499999999 -40.01746826171875 1624.5874999999999 230.0349365234375" style="background: rgba(0, 0, 0, 0);" preserveAspectRatio="xMidYMid"><defs><filter id="editing-hole" x="-100%" y="-100%" width="300%" height="300%"><feFlood flood-color="#000" result="black"></feFlood><feMorphology operator="dilate" radius="2" in="SourceGraphic" result="erode"></feMorphology><feGaussianBlur in="erode" stdDeviation="4" result="blur"></feGaussianBlur><feOffset in="blur" dx="2" dy="2" result="offset"></feOffset><feComposite operator="atop" in="offset" in2="black" result="merge"></feComposite><feComposite operator="in" in="merge" in2="SourceGraphic" result="inner-shadow"></feComposite></filter></defs><g filter="url(#editing-hole)"><g transform="translate(-339.84001445770264, 117.96500015258789)"><path d="M13.20-83.03L37.62-83.03L37.62-83.03Q56.36-83.03 67.65-71.74L67.65-71.74L67.65-71.74Q78.94-60.46 78.94-41.51L78.94-41.51L78.94-41.51Q78.94-22.57 67.65-11.29L67.65-11.29L67.65-11.29Q56.36 0 37.62 0L37.62 0L13.20 0L13.20-83.03ZM23.63-73.79L23.63-9.11L37.62-9.11L37.62-9.11Q51.48-9.11 59.66-18.28L59.66-18.28L59.66-18.28Q67.85-27.46 67.85-41.58L67.85-41.58L67.85-41.58Q67.85-55.70 59.60-64.75L59.60-64.75L59.60-64.75Q51.35-73.79 37.62-73.79L37.62-73.79L23.63-73.79ZM100.58 0L100.58-83.03L111.01-83.03L111.01 0L100.58 0ZM191.93-62.83L181.76-62.83L181.76-62.83Q179.52-74.98 163.94-74.98L163.94-74.98L163.94-74.98Q155.63-74.98 151.14-71.35L151.14-71.35L151.14-71.35Q146.65-67.72 146.65-62.63L146.65-62.63L146.65-62.63Q146.65-57.55 149.42-54.91L149.42-54.91L149.42-54.91Q152.20-52.27 158.40-50.29L158.40-50.29L175.69-44.35L175.69-44.35Q184.54-41.32 189.75-36.04L189.75-36.04L189.75-36.04Q194.96-30.76 194.96-21.19L194.96-21.19L194.96-21.19Q194.96-11.62 186.78-5.08L186.78-5.08L186.78-5.08Q178.60 1.45 164.87 1.45L164.87 1.45L164.87 1.45Q151.14 1.45 142.36-5.48L142.36-5.48L142.36-5.48Q133.58-12.41 133.32-24.95L133.32-24.95L143.48-24.95L143.48-24.95Q143.48-16.76 149.23-12.41L149.23-12.41L149.23-12.41Q154.97-8.05 164.01-8.05L164.01-8.05L164.01-8.05Q173.05-8.05 178.33-12.08L178.33-12.08L178.33-12.08Q183.61-16.10 183.61-21.58L183.61-21.58L183.61-21.58Q183.61-27.06 180.38-30.23L180.38-30.23L180.38-30.23Q177.14-33.40 170.81-35.51L170.81-35.51L156.16-40.92L156.16-40.92Q145.86-44.35 140.58-49.10L140.58-49.10L140.58-49.10Q135.30-53.86 135.30-63.03L135.30-63.03L135.30-63.03Q135.30-72.20 142.69-78.34L142.69-78.34L142.69-78.34Q150.08-84.48 163.42-84.48L163.42-84.48L163.42-84.48Q176.75-84.48 183.81-78.61L183.81-78.61L183.81-78.61Q190.87-72.73 191.93-62.83L191.93-62.83ZM246.18-84.48L246.18-84.48L246.18-84.48Q259.51-84.48 267.63-77.81L267.63-77.81L267.63-77.81Q275.75-71.15 278.78-60.46L278.78-60.46L267.56-58.21L267.56-58.21Q264.92-66 259.31-70.55L259.31-70.55L259.31-70.55Q253.70-75.11 246.18-75.11L246.18-75.11L246.18-75.11Q235.75-75.11 228.89-66.40L228.89-66.40L228.89-66.40Q222.02-57.68 222.02-42.17L222.02-42.17L222.02-42.17Q222.02-26.66 228.16-17.29L228.16-17.29L228.16-17.29Q234.30-7.92 246.18-7.92L246.18-7.92L246.18-7.92Q256.08-7.92 261.82-13.13L261.82-13.13L261.82-13.13Q267.56-18.35 267.56-26.93L267.56-26.93L278.78-26.93L278.78-26.93Q278.78-13.86 269.87-6.20L269.87-6.20L269.87-6.20Q260.96 1.45 245.45 1.45L245.45 1.45L245.45 1.45Q229.94 1.45 220.37-10.43L220.37-10.43L220.37-10.43Q210.80-22.31 210.80-42.24L210.80-42.24L210.80-42.24Q210.80-62.17 220.70-73.33L220.70-73.33L220.70-73.33Q230.60-84.48 246.18-84.48ZM327.62-84.48L327.62-84.48L327.62-84.48Q343.73-84.48 353.69-73.46L353.69-73.46L353.69-73.46Q363.66-62.44 363.66-41.38L363.66-41.38L363.66-41.38Q363.66-20.33 353.76-9.44L353.76-9.44L353.76-9.44Q343.86 1.45 327.62 1.45L327.62 1.45L327.62 1.45Q311.39 1.45 301.55-9.57L301.55-9.57L301.55-9.57Q291.72-20.59 291.72-41.45L291.72-41.45L291.72-41.45Q291.72-62.44 301.55-73.46L301.55-73.46L301.55-73.46Q311.39-84.48 327.62-84.48ZM327.62-75.11L327.62-75.11L327.62-75.11Q316.01-75.11 309.28-66.40L309.28-66.40L309.28-66.40Q302.54-57.68 302.54-41.32L302.54-41.32L302.54-41.32Q302.54-24.95 309.28-16.50L309.28-16.50L309.28-16.50Q316.01-8.05 327.62-8.05L327.62-8.05L327.62-8.05Q339.24-8.05 346.04-16.50L346.04-16.50L346.04-16.50Q352.84-24.95 352.84-41.32L352.84-41.32L352.84-41.32Q352.84-57.68 346.04-66.40L346.04-66.40L346.04-66.40Q339.24-75.11 327.62-75.11ZM441.41-59.27L441.41-59.27L441.41-59.27Q441.41-48.97 435.93-42.64L435.93-42.64L435.93-42.64Q430.45-36.30 419.76-34.45L419.76-34.45L443.52 0L430.06 0L408.54-33.92L394.02-33.92L394.02 0L383.59 0L383.59-83.03L412.50-83.03L412.50-83.03Q426.49-83.03 433.95-76.30L433.95-76.30L433.95-76.30Q441.41-69.56 441.41-59.27ZM394.02-41.18L411.71-41.18L411.71-41.18Q421.08-41.18 425.90-45.74L425.90-45.74L425.90-45.74Q430.72-50.29 430.72-57.75L430.72-57.75L430.72-57.75Q430.72-65.21 426.03-69.63L426.03-69.63L426.03-69.63Q421.34-74.05 412.50-74.05L412.50-74.05L394.02-74.05L394.02-41.18ZM464.38-83.03L488.80-83.03L488.80-83.03Q507.54-83.03 518.83-71.74L518.83-71.74L518.83-71.74Q530.11-60.46 530.11-41.51L530.11-41.51L530.11-41.51Q530.11-22.57 518.83-11.29L518.83-11.29L518.83-11.29Q507.54 0 488.80 0L488.80 0L464.38 0L464.38-83.03ZM474.80-73.79L474.80-9.11L488.80-9.11L488.80-9.11Q502.66-9.11 510.84-18.28L510.84-18.28L510.84-18.28Q519.02-27.46 519.02-41.58L519.02-41.58L519.02-41.58Q519.02-55.70 510.77-64.75L510.77-64.75L510.77-64.75Q502.52-73.79 488.80-73.79L488.80-73.79L474.80-73.79ZM583.18 0L583.18-83.03L593.60-83.03L593.60 0L583.18 0ZM674.52-62.83L664.36-62.83L664.36-62.83Q662.11-74.98 646.54-74.98L646.54-74.98L646.54-74.98Q638.22-74.98 633.73-71.35L633.73-71.35L633.73-71.35Q629.24-67.72 629.24-62.63L629.24-62.63L629.24-62.63Q629.24-57.55 632.02-54.91L632.02-54.91L632.02-54.91Q634.79-52.27 640.99-50.29L640.99-50.29L658.28-44.35L658.28-44.35Q667.13-41.32 672.34-36.04L672.34-36.04L672.34-36.04Q677.56-30.76 677.56-21.19L677.56-21.19L677.56-21.19Q677.56-11.62 669.37-5.08L669.37-5.08L669.37-5.08Q661.19 1.45 647.46 1.45L647.46 1.45L647.46 1.45Q633.73 1.45 624.95-5.48L624.95-5.48L624.95-5.48Q616.18-12.41 615.91-24.95L615.91-24.95L626.08-24.95L626.08-24.95Q626.08-16.76 631.82-12.41L631.82-12.41L631.82-12.41Q637.56-8.05 646.60-8.05L646.60-8.05L646.60-8.05Q655.64-8.05 660.92-12.08L660.92-12.08L660.92-12.08Q666.20-16.10 666.20-21.58L666.20-21.58L666.20-21.58Q666.20-27.06 662.97-30.23L662.97-30.23L662.97-30.23Q659.74-33.40 653.40-35.51L653.40-35.51L638.75-40.92L638.75-40.92Q628.45-44.35 623.17-49.10L623.17-49.10L623.17-49.10Q617.89-53.86 617.89-63.03L617.89-63.03L617.89-63.03Q617.89-72.20 625.28-78.34L625.28-78.34L625.28-78.34Q632.68-84.48 646.01-84.48L646.01-84.48L646.01-84.48Q659.34-84.48 666.40-78.61L666.40-78.61L666.40-78.61Q673.46-72.73 674.52-62.83L674.52-62.83ZM721.51 0L750.02-83.03L762.70-83.03L790.55 0L779.72 0L772.60-21.12L739.60-21.12L732.47 0L721.51 0ZM756.23-70.22L742.37-29.30L769.96-29.30L756.23-70.22ZM838.73 0L838.73-83.03L869.75-83.03L869.75-83.03Q882.82-83.03 889.88-76.82L889.88-76.82L889.88-76.82Q896.94-70.62 896.94-61.25L896.94-61.25L896.94-61.25Q896.94-54.12 893.05-48.84L893.05-48.84L893.05-48.84Q889.15-43.56 881.23-41.71L881.23-41.71L881.23-41.71Q889.02-40.39 893.71-34.98L893.71-34.98L893.71-34.98Q898.39-29.57 898.39-22.70L898.39-22.70L898.39-22.70Q898.39-7.39 883.48-1.98L883.48-1.98L883.48-1.98Q877.93 0 869.88 0L869.88 0L838.73 0ZM849.16-9.11L869.62-9.11L869.62-9.11Q879.12-9.11 883.21-12.94L883.21-12.94L883.21-12.94Q887.30-16.76 887.30-23.10L887.30-23.10L887.30-23.10Q887.30-29.44 882.82-33.20L882.82-33.20L882.82-33.20Q878.33-36.96 869.62-36.96L869.62-36.96L849.16-36.96L849.16-9.11ZM849.16-74.05L849.16-45.94L869.48-45.94L869.48-45.94Q877.14-45.94 881.69-49.70L881.69-49.70L881.69-49.70Q886.25-53.46 886.25-60.06L886.25-60.06L886.25-60.06Q886.25-66.66 881.83-70.36L881.83-70.36L881.83-70.36Q877.40-74.05 869.48-74.05L869.48-74.05L849.16-74.05ZM920.83 0L920.83-83.03L931.26-83.03L931.26 0L920.83 0ZM945.25-74.05L945.25-83.03L1009.80-83.03L1009.80-74.05L982.74-74.05L982.74 0L972.31 0L972.31-74.05L945.25-74.05ZM1052.70-84.48L1052.70-84.48L1052.70-84.48Q1066.03-84.48 1074.15-77.81L1074.15-77.81L1074.15-77.81Q1082.27-71.15 1085.30-60.46L1085.30-60.46L1074.08-58.21L1074.08-58.21Q1071.44-66 1065.83-70.55L1065.83-70.55L1065.83-70.55Q1060.22-75.11 1052.70-75.11L1052.70-75.11L1052.70-75.11Q1042.27-75.11 1035.41-66.40L1035.41-66.40L1035.41-66.40Q1028.54-57.68 1028.54-42.17L1028.54-42.17L1028.54-42.17Q1028.54-26.66 1034.68-17.29L1034.68-17.29L1034.68-17.29Q1040.82-7.92 1052.70-7.92L1052.70-7.92L1052.70-7.92Q1062.60-7.92 1068.34-13.13L1068.34-13.13L1068.34-13.13Q1074.08-18.35 1074.08-26.93L1074.08-26.93L1085.30-26.93L1085.30-26.93Q1085.30-13.86 1076.39-6.20L1076.39-6.20L1076.39-6.20Q1067.48 1.45 1051.97 1.45L1051.97 1.45L1051.97 1.45Q1036.46 1.45 1026.89-10.43L1026.89-10.43L1026.89-10.43Q1017.32-22.31 1017.32-42.24L1017.32-42.24L1017.32-42.24Q1017.32-62.17 1027.22-73.33L1027.22-73.33L1027.22-73.33Q1037.12-84.48 1052.70-84.48ZM1104.84-83.03L1115.27-83.03L1115.27-46.46L1156.06-46.46L1156.06-83.03L1166.48-83.03L1166.48 0L1156.06 0L1156.06-37.49L1115.27-37.49L1115.27 0L1104.84 0L1104.84-83.03Z" fill="#ccc"></path></g></g><style>text {
  font-size: 64px;
  font-family: Arial Black;
  dominant-baseline: central;
  text-anchor: middle;
}</style></svg>